<svg width="24" height="24" viewBox="0 0 24 24" fill="none" xmlns="http://www.w3.org/2000/svg">
<g id="Layer_1">
<path id="Vector" d="M8.95008 6.8362L7.05755 2.77815C6.94206 2.52614 6.75093 2.31637 6.51071 2.17801C6.27049 2.03965 5.99313 1.97958 5.7172 2.00614C4.7104 2.09879 3.73649 2.4127 2.86509 2.92544C2.81174 2.95642 2.76303 2.99478 2.72039 3.03937C1.81877 3.98271 1.26496 5.12447 1.07428 6.43332C0.90202 7.61531 1.02974 8.91502 1.45358 10.2964C2.21949 12.7926 3.9183 15.4443 6.23709 17.763C8.55589 20.0818 11.2076 21.7806 13.7037 22.5465C14.6878 22.8485 15.6303 23 16.5184 23C16.8692 23.0006 17.2196 22.9757 17.5668 22.9257C18.8757 22.7351 20.0175 22.1813 20.9607 21.2796C21.0053 21.237 21.0437 21.1883 21.0747 21.1349C21.5875 20.2636 21.9014 19.2896 21.9939 18.2828C22.0206 18.0069 21.9606 17.7295 21.8222 17.4893C21.6839 17.249 21.474 17.0579 21.222 16.9425L17.1639 15.05C16.9088 14.928 16.6214 14.8905 16.3436 14.9431C16.0657 14.9957 15.8119 15.1357 15.6191 15.3425L13.8848 17.1665C12.789 16.851 11.2038 15.7568 9.72344 14.2765C8.24311 12.7962 7.14889 11.2109 6.83353 10.1152L8.65744 8.38093C8.86428 8.18812 9.0042 7.93434 9.05684 7.65651C9.10947 7.37868 9.07207 7.09131 8.95008 6.8362ZM16.5703 16.2469C16.5723 16.2437 16.5749 16.241 16.578 16.2389C16.5811 16.2368 16.5845 16.2353 16.5882 16.2346C16.5919 16.2339 16.5956 16.234 16.5993 16.2348C16.6029 16.2357 16.6064 16.2372 16.6094 16.2395L20.6672 18.1321C20.6852 18.1403 20.6885 18.1461 20.6867 18.1659C20.6543 18.5267 20.5856 18.8833 20.4817 19.2303L15.7562 17.1031L16.5703 16.2469ZM8.79558 15.2045C10.6678 17.0768 12.6155 18.322 14.0058 18.5355C14.1104 18.5516 14.2174 18.5421 14.3175 18.5079C14.4177 18.4737 14.5081 18.4158 14.581 18.3391L14.7979 18.111L19.9476 20.4292C18.1337 22.0669 15.7686 21.8073 14.0887 21.2918C11.7939 20.5877 9.33516 19.0049 7.16513 16.835C4.9951 14.6652 3.41243 12.2063 2.7083 9.91142C2.19283 8.23147 1.93312 5.86638 3.57087 4.05251L5.88905 9.20224L5.66092 9.41917C5.58422 9.49208 5.52629 9.58247 5.49209 9.68262C5.45789 9.78277 5.44842 9.88971 5.46451 9.99431C5.67811 11.3847 6.92335 13.3323 8.79558 15.2045ZM7.75323 7.42981L6.89706 8.2439L4.76985 3.51859C5.11686 3.41466 5.47346 3.34596 5.83425 3.31351C5.85398 3.31163 5.85968 3.31499 5.86809 3.333L7.76066 7.39088C7.76286 7.39388 7.76442 7.3973 7.76525 7.40092C7.76607 7.40455 7.76613 7.40831 7.76544 7.41196C7.76474 7.41562 7.7633 7.41909 7.7612 7.42216C7.7591 7.42523 7.75639 7.42783 7.75323 7.42981ZM18.7196 6.92533L16.1216 4.32723C15.9997 4.20391 15.9317 4.03739 15.9322 3.86404C15.9327 3.69068 16.0018 3.52458 16.1244 3.402C16.247 3.27942 16.4131 3.21033 16.5864 3.2098C16.7598 3.20927 16.9263 3.27736 17.0496 3.39919L20.1117 6.46129C20.2348 6.58436 20.3039 6.75127 20.3039 6.92531C20.3039 7.09935 20.2348 7.26626 20.1117 7.38932L17.0496 10.4514C16.9263 10.5732 16.7598 10.6413 16.5865 10.6408C16.4131 10.6402 16.247 10.5712 16.1244 10.4486C16.0018 10.326 15.9327 10.1599 15.9322 9.98654C15.9317 9.81319 15.9998 9.64667 16.1216 9.52335L18.7196 6.92533ZM12.3309 9.52335L14.929 6.92529L12.3309 4.32723C12.2694 4.26643 12.2205 4.19406 12.187 4.11428C12.1535 4.0345 12.1362 3.9489 12.1359 3.86239C12.1356 3.77587 12.1525 3.69016 12.1855 3.61019C12.2185 3.53021 12.2669 3.45754 12.3281 3.39637C12.3893 3.33519 12.462 3.28672 12.5419 3.25373C12.6219 3.22075 12.7076 3.2039 12.7941 3.20417C12.8806 3.20443 12.9662 3.22179 13.046 3.25527C13.1258 3.28874 13.1982 3.33765 13.259 3.39919L16.3211 6.46129C16.4441 6.58436 16.5133 6.75127 16.5133 6.92531C16.5133 7.09935 16.4441 7.26626 16.3211 7.38932L13.259 10.4514C13.1982 10.5129 13.1258 10.5618 13.0461 10.5953C12.9663 10.6288 12.8807 10.6461 12.7942 10.6464C12.7077 10.6467 12.6219 10.6298 12.542 10.5968C12.462 10.5639 12.3893 10.5154 12.3282 10.4542C12.267 10.393 12.2185 10.3204 12.1855 10.2404C12.1525 10.1604 12.1357 10.0747 12.1359 9.98819C12.1362 9.90168 12.1536 9.81607 12.187 9.73629C12.2205 9.65652 12.2694 9.58415 12.331 9.52335H12.3309Z" fill="white"/>
</g>
</svg>
