<?xml version="1.0" ?>
<!-- Uploaded to: SVG Repo, www.svgrepo.com, Generator: SVG Repo Mixer Tools -->
<svg fill="#000000" width="800px" height="800px" viewBox="0 0 64 64" xmlns="http://www.w3.org/2000/svg">
<g id="a"/>
<g id="b">
<path d="M55.9883,36.4731l-2.6133-4.3625c1.1588-.8311,1.9977-2.0117,2.3487-3.4105,.3926-1.564,.1523-3.1875-.6768-4.5713l-5.2148-8.7114c-1.6237-2.7128-5.0556-3.6849-7.8427-2.3129l-2.6007-4.3414c-.0996-.1665-.2744-.2568-.4805-.2407-.1924,.02-.3564,.1499-.4209,.3335-.5281,1.5226-1.3049,3.0776-2.2867,4.632-1.7054-2.2603-3.7879-4.0881-6.7006-4.4304v-.0576H11.5c-1.3789,0-2.5,1.1216-2.5,2.5v13c0,1.3784,1.1211,2.5,2.5,2.5h10.009l-2.7756,1.9199c-1.2119,.8457-2.3525,1.811-3.3896,2.8696-.7455,.758-.8893,1.9149-.362,2.8281l-.3646,.2183c-1.9834,1.1875-2.4746,4.0269-1.0967,6.3291l1.6826,2.8101c.9678,1.6157,2.6025,2.5444,4.1777,2.5444,.6689,0,1.3281-.168,1.9189-.5215l.3663-.2193c.4382,.6997,1.1973,1.1089,1.994,1.1089,.2227,0,.4473-.0317,.6689-.0972,.84-.2419,1.6483-.5388,2.4354-.8644,.6132,.1221,2.9301,.7043,4.9875,2.8131,1.1025,1.1299,1.9258,2.5049,2.3799,3.9751,.0645,.21,.2588,.3525,.4775,.3525h.0039l8.8906-.0669c.1797-.0015,.3457-.0996,.4326-.2568,.0879-.1572,.084-.3496-.0098-.5034-.2324-.3813-.4609-.7632-.6904-1.1475-1.7429-2.9164-3.5486-5.9295-7.6407-9.5898l2.6017-1.3315c.1173-.0558,9.0997-4.2383,17.2842-2.9469,.1963,.0308,.3838-.0537,.4922-.2144,.1094-.1611,.1143-.3701,.0146-.5366Zm-7.0137-20.542l5.2148,8.7114c1.3384,2.2357,.7172,5.0842-1.3295,6.6085l-10.3438-17.267c2.3116-1.0892,5.1182-.2896,6.4584,1.9471ZM10,24.5V11.5c0-.8271,.6729-1.5,1.5-1.5H28.5c4.6055,0,7.1729,4.1885,9.4199,8-2.2412,3.8008-4.8086,8-9.4199,8H11.5c-.8271,0-1.5-.6729-1.5-1.5Zm6.0605,18.9614l-1.6826-2.8101c-1.0947-1.8291-.7568-4.0532,.7529-4.957l.3617-.2166,5.6552,9.4454-.3616,.2165c-1.5127,.9043-3.6299,.1494-4.7256-1.6782Zm26.3174,8.144l.2402,.4014-7.6475,.0571c-.5195-1.4868-1.3799-2.8711-2.5039-4.0229-1.5209-1.5591-3.1595-2.3558-4.2945-2.7557,.0927-.0463,.1942-.0825,.2857-.1301l6.1821-3.1638c4.1846,3.6775,5.994,6.6952,7.7379,9.614Zm-14.3779-7.3394c-1.2246,.6357-2.5527,1.1621-3.9512,1.5645-.5957,.1758-1.2324-.0698-1.5498-.5972l-6.6406-11.0913c-.3193-.5293-.2373-1.2085,.1992-1.6519,.9941-1.0146,2.0869-1.9399,3.2461-2.749l3.9623-2.7412h5.2339c.4275,0,.8326-.0406,1.2279-.0987l7.5494,12.6172-9.2773,4.7476Zm10.1807-5.1846l-7.4218-12.4037c3.8478-1.1047,6.1252-4.9485,8.1717-8.424,.0928-.1567,.083-.3667-.0088-.5229-.6575-1.1161-1.3408-2.2709-2.0912-3.363,.9142-1.4029,1.6663-2.8114,2.2318-4.2034l15.5361,25.9351c-7.2777-.7715-14.6254,2.1953-16.4179,2.9819ZM26.5576,14.6929l-7.6709,7.3369c-.0967,.0928-.2217,.1387-.3457,.1387-.1318,0-.2627-.0518-.3613-.1543-.1904-.1997-.1836-.5161,.0156-.707l7.6709-7.3369c.2002-.1909,.5156-.1831,.707,.0156,.1904,.1997,.1836,.5161-.0156,.707Zm-6.5576,2.3071c1.1025,0,2-.897,2-2s-.8975-2-2-2-2,.897-2,2,.8975,2,2,2Zm0-3c.5518,0,1,.4487,1,1s-.4482,1-1,1-1-.4487-1-1,.4482-1,1-1Zm5,5c-1.1025,0-2,.897-2,2s.8975,2,2,2,2-.897,2-2-.8975-2-2-2Zm0,3c-.5518,0-1-.4487-1-1s.4482-1,1-1,1,.4487,1,1-.4482,1-1,1Z"/>
</g>
</svg>