<svg width="20" height="20" viewBox="0 0 20 20" fill="none" xmlns="http://www.w3.org/2000/svg">
<g id="mdi:clock-outline">
<path id="Vector" d="M9.99935 16.6667C11.7675 16.6667 13.4632 15.9644 14.7134 14.7141C15.9636 13.4639 16.666 11.7682 16.666 10.0001C16.666 8.23197 15.9636 6.53628 14.7134 5.28604C13.4632 4.03579 11.7675 3.33341 9.99935 3.33341C8.23124 3.33341 6.53555 4.03579 5.2853 5.28604C4.03506 6.53628 3.33268 8.23197 3.33268 10.0001C3.33268 11.7682 4.03506 13.4639 5.2853 14.7141C6.53555 15.9644 8.23124 16.6667 9.99935 16.6667ZM9.99935 1.66675C11.0937 1.66675 12.1773 1.8823 13.1884 2.30109C14.1994 2.71987 15.1181 3.3337 15.8919 4.10752C16.6657 4.88135 17.2796 5.80001 17.6983 6.81105C18.1171 7.8221 18.3327 8.90573 18.3327 10.0001C18.3327 12.2102 17.4547 14.3298 15.8919 15.8926C14.3291 17.4554 12.2095 18.3334 9.99935 18.3334C5.39102 18.3334 1.66602 14.5834 1.66602 10.0001C1.66602 7.78994 2.54399 5.67033 4.10679 4.10752C5.6696 2.54472 7.78921 1.66675 9.99935 1.66675ZM10.416 5.83341V10.2084L14.166 12.4334L13.541 13.4584L9.16602 10.8334V5.83341H10.416Z" fill="black"/>
</g>
</svg>
