<svg width="24" height="24" viewBox="0 0 24 24" fill="none" xmlns="http://www.w3.org/2000/svg">
<g id="Layer_1" clip-path="url(#clip0_2744_2262)">
<g id="Group">
<g id="Group_2">
<path id="Vector" d="M12.9531 4.06885L15.4821 1.55835L18.0111 4.06885" stroke="white" stroke-miterlimit="10" stroke-linecap="round" stroke-linejoin="round"/>
<path id="Vector_2" d="M2.26562 16.4344C2.26562 16.4344 15.4813 16.0269 15.4813 3.97067L15.4815 1.55847" stroke="white" stroke-miterlimit="10" stroke-linecap="round" stroke-linejoin="round"/>
<path id="Vector_3" d="M5.10936 11.388C7.54825 11.388 9.52536 9.41092 9.52536 6.97203C9.52536 4.53314 7.54825 2.55603 5.10936 2.55603C2.67047 2.55603 0.693359 4.53314 0.693359 6.97203C0.693359 9.41092 2.67047 11.388 5.10936 11.388Z" stroke="white" stroke-miterlimit="10" stroke-linecap="round" stroke-linejoin="round"/>
<path id="Vector_4" d="M3.51758 8.6486C3.94598 9.0215 4.60668 9.3016 5.08358 9.3016C5.84658 9.3016 6.46518 8.7608 6.46518 8.0936C6.46518 7.4264 5.80468 7.0964 5.08358 6.8856C4.33618 6.6514 3.70198 6.3448 3.70198 5.6776C3.70198 5.0104 4.32058 4.4696 5.08358 4.4696C5.59738 4.4696 6.04568 4.7148 6.28368 5.0787" stroke="white" stroke-miterlimit="10" stroke-linecap="round" stroke-linejoin="round"/>
<path id="Vector_5" d="M5.08398 3.81006V4.47006" stroke="white" stroke-miterlimit="10" stroke-linecap="round" stroke-linejoin="round"/>
<path id="Vector_6" d="M5.08398 9.302V9.962" stroke="white" stroke-miterlimit="10" stroke-linecap="round" stroke-linejoin="round"/>
<path id="Vector_7" d="M21.5508 2.5H23.5508V23.5H21.5508V2.5Z" stroke="white" stroke-miterlimit="10" stroke-linecap="round" stroke-linejoin="round"/>
<path id="Vector_8" d="M16.5508 11.5011H18.5508V23.5001H16.5508V11.5011Z" stroke="white" stroke-miterlimit="10" stroke-linecap="round" stroke-linejoin="round"/>
<path id="Vector_9" d="M11.5508 16.5011H13.5508V23.5001H11.5508V16.5011Z" stroke="white" stroke-miterlimit="10" stroke-linecap="round" stroke-linejoin="round"/>
<path id="Vector_10" d="M6.55078 19.5011H8.55078V23.5001H6.55078V19.5011Z" stroke="white" stroke-miterlimit="10" stroke-linecap="round" stroke-linejoin="round"/>
<path id="Vector_11" d="M1.54883 20.5011H3.54883V23.5001H1.54883V20.5011Z" stroke="white" stroke-miterlimit="10" stroke-linecap="round" stroke-linejoin="round"/>
</g>
</g>
</g>
<defs>
<clipPath id="clip0_2744_2262">
<rect width="24" height="24" fill="white"/>
</clipPath>
</defs>
</svg>
