<svg width="12" height="14" viewBox="0 0 12 14" fill="none" xmlns="http://www.w3.org/2000/svg">
<path fill-rule="evenodd" clip-rule="evenodd" d="M1.33331 2.91665C1.33331 2.59448 1.59448 2.33331 1.91665 2.33331H10.0833C10.4055 2.33331 10.6666 2.59448 10.6666 2.91665V11.0833C10.6666 12.6888 9.35549 14 7.74998 14H4.24998C2.64448 14 1.33331 12.6888 1.33331 11.0833V2.91665ZM2.49998 3.49998V11.0833C2.49998 12.0445 3.28881 12.8333 4.24998 12.8333H7.74998C8.71114 12.8333 9.49998 12.0445 9.49998 11.0833V3.49998H2.49998Z" fill="#ED1111"/>
<path fill-rule="evenodd" clip-rule="evenodd" d="M0.166656 2.91665C0.166656 2.59448 0.427826 2.33331 0.74999 2.33331H11.25C11.5722 2.33331 11.8333 2.59448 11.8333 2.91665C11.8333 3.23881 11.5722 3.49998 11.25 3.49998H0.74999C0.427826 3.49998 0.166656 3.23881 0.166656 2.91665Z" fill="#ED1111"/>
<path fill-rule="evenodd" clip-rule="evenodd" d="M3.66666 1.75C3.66666 0.78617 4.45283 0 5.41666 0H6.58332C7.54716 0 8.33332 0.78617 8.33332 1.75V2.91667C8.33332 3.23883 8.07216 3.5 7.74999 3.5H4.24999C3.92783 3.5 3.66666 3.23883 3.66666 2.91667V1.75ZM5.41666 1.16667C5.09716 1.16667 4.83332 1.4305 4.83332 1.75V2.33333H7.16666V1.75C7.16666 1.4305 6.90281 1.16667 6.58332 1.16667H5.41666Z" fill="#ED1111"/>
<path fill-rule="evenodd" clip-rule="evenodd" d="M4.83333 5.25C5.15551 5.25 5.41667 5.51117 5.41667 5.83333V10.5C5.41667 10.8222 5.15551 11.0833 4.83333 11.0833C4.51117 11.0833 4.25 10.8222 4.25 10.5V5.83333C4.25 5.51117 4.51117 5.25 4.83333 5.25Z" fill="#ED1111"/>
<path fill-rule="evenodd" clip-rule="evenodd" d="M7.16665 5.25C7.48882 5.25 7.74998 5.51117 7.74998 5.83333V10.5C7.74998 10.8222 7.48882 11.0833 7.16665 11.0833C6.84447 11.0833 6.58331 10.8222 6.58331 10.5V5.83333C6.58331 5.51117 6.84447 5.25 7.16665 5.25Z" fill="#ED1111"/>
</svg>
