<?xml version="1.0" ?><!-- Uploaded to: SVG Repo, www.svgrepo.com, Generator: SVG Repo Mixer Tools -->
<svg fill="#000000" width="800px" height="800px" viewBox="0 0 32 32" id="Outline" xmlns="http://www.w3.org/2000/svg"><path d="M6.83,7.58h0a.75.75,0,1,1,.75-.75A.75.75,0,0,1,6.82,7.58Z"/><path d="M28,29.25H21.68a.73.73,0,0,1-.68-.44L16,17.68,11,28.81a.73.73,0,0,1-.68.44H4a.74.74,0,0,1-.74-.85L6.08,6.73a.74.74,0,0,1,.74-.65H25.18a.74.74,0,0,1,.74.65L28.74,28.4a.74.74,0,0,1-.74.85Zm-5.83-1.5h5L24.52,7.58h-17L4.85,27.75h5l5.49-12.21a.77.77,0,0,1,1.36,0Z"/><path d="M25.18,7.58h0a.75.75,0,1,1,.76-.75A.76.76,0,0,1,25.17,7.58Z"/><path d="M23.6,7.58H8.4a.76.76,0,0,1-.75-.75V3.5a.76.76,0,0,1,.75-.75H23.6a.76.76,0,0,1,.75.75V6.83A.76.76,0,0,1,23.6,7.58ZM9.15,6.08h13.7V4.25H9.15Z"/><path d="M26.1,14.67H26c-5.12-.42-5.65-3.91-5.67-4.06a.75.75,0,0,1,1.48-.21c0,.12.46,2.46,4.32,2.78a.75.75,0,0,1-.07,1.5Z"/><path d="M5.94,14.73a.75.75,0,0,1-.06-1.5c3.87-.32,4.3-2.68,4.31-2.78A.77.77,0,0,1,11,9.82a.76.76,0,0,1,.64.84c0,.15-.56,3.64-5.68,4.07Z"/></svg>