<svg width="32" height="24" viewBox="0 0 32 24" fill="none" xmlns="http://www.w3.org/2000/svg">
<g id="Frame">
<g id="Group">
<g id="hanger">
<g id="Group_2">
<path id="Vector" fill-rule="evenodd" clip-rule="evenodd" d="M15 11.107V9.66189C15 9.26043 15.448 8.93461 16 8.93461C17.108 8.93461 18.007 8.2808 18.007 7.47571C18.007 6.66989 17.108 6.01607 16 6.01607C14.892 6.01607 13.993 6.66989 13.993 7.47571C13.993 7.87716 13.545 8.20298 12.993 8.20298C12.441 8.20298 11.993 7.87716 11.993 7.47571C11.993 5.86698 13.789 4.56152 16 4.56152C18.211 4.56152 20.007 5.86698 20.007 7.47571C20.007 8.8328 18.728 9.97461 17 10.2975V11.107H18C18.552 11.107 19 11.4328 19 11.8343V12.5768L27.303 14.6444C28.916 15.0459 30 16.1492 30 17.3892V17.3913C30 17.8982 29.692 18.379 29.159 18.7048C28.626 19.0306 27.922 19.1688 27.236 19.0823L16 17.6633L4.764 19.0823C4.078 19.1688 3.374 19.0306 2.841 18.7048C2.308 18.379 2 17.8982 2 17.3913V17.3892C2 16.1492 3.084 15.0459 4.697 14.6444L13 12.5768V11.8343C13 11.4328 13.448 11.107 14 11.107H15ZM17 12.5615H15V13.0961C15 13.4073 14.728 13.6837 14.324 13.7841C14.324 13.7841 8.522 15.2292 5.345 16.0204C4.541 16.2204 4 16.771 4 17.3892V17.3913C4 17.4684 4.047 17.5419 4.128 17.5921C4.21 17.6415 4.317 17.6626 4.422 17.6495C7.892 17.211 15.829 16.2088 15.829 16.2088C15.942 16.1943 16.058 16.1943 16.171 16.2088C16.171 16.2088 24.108 17.211 27.578 17.6495C27.683 17.6626 27.79 17.6415 27.872 17.5921C27.953 17.5419 28 17.4684 28 17.3913V17.3892C28 16.771 27.459 16.2204 26.655 16.0204C23.478 15.2292 17.676 13.7841 17.676 13.7841C17.272 13.6837 17 13.4073 17 13.0961V12.5615Z" fill="white"/>
</g>
</g>
</g>
</g>
</svg>
