<svg width="24" height="24" viewBox="0 0 24 24" fill="none" xmlns="http://www.w3.org/2000/svg">
<g id="Left_Right_Arrow">
<g id="Group">
<path id="Vector" d="M5.25 7.5H3.75C2.5125 7.5 1.5 6.4875 1.5 5.25V3.75C1.5 2.5125 2.5125 1.5 3.75 1.5H5.25C6.4875 1.5 7.5 2.5125 7.5 3.75V5.25C7.5 6.4875 6.4875 7.5 5.25 7.5ZM3.75 3C3.3375 3 3 3.3375 3 3.75V5.25C3 5.6625 3.3375 6 3.75 6H5.25C5.6625 6 6 5.6625 6 5.25V3.75C6 3.3375 5.6625 3 5.25 3H3.75Z" fill="white"/>
<path id="Vector_2" d="M5.25 22.5H3.75C2.5125 22.5 1.5 21.4875 1.5 20.25V18.75C1.5 17.5125 2.5125 16.5 3.75 16.5H5.25C6.4875 16.5 7.5 17.5125 7.5 18.75V20.25C7.5 21.4875 6.4875 22.5 5.25 22.5ZM3.75 18C3.3375 18 3 18.3375 3 18.75V20.25C3 20.6625 3.3375 21 3.75 21H5.25C5.6625 21 6 20.6625 6 20.25V18.75C6 18.3375 5.6625 18 5.25 18H3.75Z" fill="white"/>
<path id="Vector_3" d="M5.25 15H3.75C2.5125 15 1.5 13.9875 1.5 12.75V11.25C1.5 10.0125 2.5125 9 3.75 9H5.25C6.4875 9 7.5 10.0125 7.5 11.25V12.75C7.5 13.9875 6.4875 15 5.25 15ZM3.75 10.5C3.3375 10.5 3 10.8375 3 11.25V12.75C3 13.1625 3.3375 13.5 3.75 13.5H5.25C5.6625 13.5 6 13.1625 6 12.75V11.25C6 10.8375 5.6625 10.5 5.25 10.5H3.75Z" fill="white"/>
<path id="Vector_4" d="M20.25 7.5H11.25C10.0125 7.5 9 6.4875 9 5.25V3.75C9 2.5125 10.0125 1.5 11.25 1.5H20.25C21.4875 1.5 22.5 2.5125 22.5 3.75V5.25C22.5 6.4875 21.4875 7.5 20.25 7.5ZM11.25 3C10.8375 3 10.5 3.3375 10.5 3.75V5.25C10.5 5.6625 10.8375 6 11.25 6H20.25C20.6625 6 21 5.6625 21 5.25V3.75C21 3.3375 20.6625 3 20.25 3H11.25Z" fill="white"/>
<path id="Vector_5" d="M20.25 15H11.25C10.0125 15 9 13.9875 9 12.75V11.25C9 10.0125 10.0125 9 11.25 9H20.25C21.4875 9 22.5 10.0125 22.5 11.25V12.75C22.5 13.9875 21.4875 15 20.25 15ZM11.25 10.5C10.8375 10.5 10.5 10.8375 10.5 11.25V12.75C10.5 13.1625 10.8375 13.5 11.25 13.5H20.25C20.6625 13.5 21 13.1625 21 12.75V11.25C21 10.8375 20.6625 10.5 20.25 10.5H11.25Z" fill="white"/>
<path id="Vector_6" d="M20.25 22.5H11.25C10.0125 22.5 9 21.4875 9 20.25V18.75C9 17.5125 10.0125 16.5 11.25 16.5H20.25C21.4875 16.5 22.5 17.5125 22.5 18.75V20.25C22.5 21.4875 21.4875 22.5 20.25 22.5ZM11.25 18C10.8375 18 10.5 18.3375 10.5 18.75V20.25C10.5 20.6625 10.8375 21 11.25 21H20.25C20.6625 21 21 20.6625 21 20.25V18.75C21 18.3375 20.6625 18 20.25 18H11.25Z" fill="white"/>
</g>
</g>
</svg>
