<svg width="24" height="24" viewBox="0 0 24 24" fill="none" xmlns="http://www.w3.org/2000/svg">
<g id="Frame">
<g id="Layer 2">
<path id="Vector" d="M11.0901 22.78C10.3051 22.7714 9.5548 22.4555 9.0001 21.9L8.5601 21.46C7.79758 21.9448 6.89338 22.1571 5.99478 22.0624C5.09618 21.9677 4.25612 21.5715 3.61143 20.9384C2.96673 20.3053 2.55538 19.4726 2.44437 18.5758C2.33337 17.6791 2.52924 16.7712 3.0001 16L2.5601 15.56C2.28042 15.2813 2.05851 14.9501 1.90709 14.5855C1.75568 14.2208 1.67773 13.8298 1.67773 13.435C1.67773 13.0402 1.75568 12.6492 1.90709 12.2845C2.05851 11.9199 2.28042 11.5887 2.5601 11.31L11.7901 2.1C12.3619 1.5679 13.114 1.27209 13.8951 1.27209C14.6762 1.27209 15.4283 1.5679 16.0001 2.1L16.4401 2.54C17.2026 2.05522 18.1068 1.8429 19.0054 1.93762C19.904 2.03234 20.7441 2.42851 21.3888 3.06161C22.0335 3.69471 22.4448 4.52744 22.5558 5.42417C22.6668 6.3209 22.471 7.2288 22.0001 8L22.4401 8.44C22.7198 8.71871 22.9417 9.04989 23.0931 9.41454C23.2445 9.7792 23.3225 10.1702 23.3225 10.565C23.3225 10.9598 23.2445 11.3508 23.0931 11.7155C22.9417 12.0801 22.7198 12.4113 22.4401 12.69L13.2101 21.9C12.648 22.4628 11.8855 22.7793 11.0901 22.78ZM8.6101 19.13C8.74171 19.1292 8.87217 19.1545 8.99401 19.2042C9.11584 19.254 9.22666 19.3273 9.3201 19.42L10.3801 20.49C10.5675 20.6763 10.8209 20.7808 11.0851 20.7808C11.3493 20.7808 11.6027 20.6763 11.7901 20.49L20.9901 11.29C21.1764 11.1026 21.2809 10.8492 21.2809 10.585C21.2809 10.3208 21.1764 10.0674 20.9901 9.88L19.9201 8.82C19.8264 8.72704 19.752 8.61644 19.7012 8.49458C19.6504 8.37272 19.6243 8.24201 19.6243 8.11C19.6243 7.97799 19.6504 7.84728 19.7012 7.72542C19.752 7.60356 19.8264 7.49296 19.9201 7.4C20.2478 7.0174 20.419 6.52525 20.3995 6.02189C20.3801 5.51854 20.1714 5.04106 19.8152 4.68487C19.459 4.32868 18.9816 4.12002 18.4782 4.10058C17.9749 4.08113 17.4827 4.25235 17.1001 4.58C17.0071 4.67373 16.8965 4.74812 16.7747 4.79889C16.6528 4.84966 16.5221 4.8758 16.3901 4.8758C16.2581 4.8758 16.1274 4.84966 16.0055 4.79889C15.8837 4.74812 15.7731 4.67373 15.6801 4.58L14.6201 3.51C14.4327 3.32375 14.1793 3.21921 13.9151 3.21921C13.6509 3.21921 13.3975 3.32375 13.2101 3.51L4.0001 12.71C3.81385 12.8974 3.70931 13.1508 3.70931 13.415C3.70931 13.6792 3.81385 13.9326 4.0001 14.12L5.0701 15.18C5.16383 15.273 5.23822 15.3836 5.28899 15.5054C5.33976 15.6273 5.3659 15.758 5.3659 15.89C5.3659 16.022 5.33976 16.1527 5.28899 16.2746C5.23822 16.3964 5.16383 16.507 5.0701 16.6C4.72604 16.9811 4.54169 17.4798 4.55522 17.9931C4.56876 18.5063 4.77915 18.9946 5.14282 19.357C5.50649 19.7194 5.9956 19.9281 6.50887 19.9398C7.02214 19.9515 7.52026 19.7654 7.9001 19.42C7.99354 19.3273 8.10436 19.254 8.22619 19.2042C8.34803 19.1545 8.47849 19.1292 8.6101 19.13Z" fill="white"/>
<path id="Vector_2" d="M12.1504 16.35C11.8852 16.35 11.6308 16.2446 11.4433 16.0571C11.2557 15.8695 11.1504 15.6152 11.1504 15.35V9.34998C11.1504 9.08476 11.2557 8.8304 11.4433 8.64287C11.6308 8.45533 11.8852 8.34998 12.1504 8.34998C12.4156 8.34998 12.67 8.45533 12.8575 8.64287C13.045 8.8304 13.1504 9.08476 13.1504 9.34998V15.35C13.1504 15.6152 13.045 15.8695 12.8575 16.0571C12.67 16.2446 12.4156 16.35 12.1504 16.35Z" fill="white"/>
<path id="Vector_3" d="M9.40039 12.35C10.0907 12.35 10.6504 11.7903 10.6504 11.1C10.6504 10.4096 10.0907 9.84998 9.40039 9.84998C8.71003 9.84998 8.15039 10.4096 8.15039 11.1C8.15039 11.7903 8.71003 12.35 9.40039 12.35Z" fill="white"/>
<path id="Vector_4" d="M14.9004 14.85C15.5907 14.85 16.1504 14.2903 16.1504 13.6C16.1504 12.9096 15.5907 12.35 14.9004 12.35C14.21 12.35 13.6504 12.9096 13.6504 13.6C13.6504 14.2903 14.21 14.85 14.9004 14.85Z" fill="white"/>
</g>
</g>
</svg>
