<svg width="29" height="35" viewBox="0 0 29 35" fill="none" xmlns="http://www.w3.org/2000/svg">
<g id="User">
<path id="Vector" d="M14.5019 15.8695C18.7886 15.8695 22.2636 12.3945 22.2636 8.10785C22.2636 3.8212 18.7886 0.346191 14.5019 0.346191C10.2153 0.346191 6.74023 3.8212 6.74023 8.10785C6.74023 12.3945 10.2153 15.8695 14.5019 15.8695Z" fill="#B3B3B3"/>
<path id="Vector_2" d="M28.861 30.0084C28.274 26.6392 26.5064 23.5891 23.875 21.4046C21.2436 19.2202 17.9203 18.0441 14.5006 18.0871C11.0809 18.0441 7.75766 19.2202 5.12626 21.4046C2.49486 23.5891 0.727286 26.6392 0.14025 30.0084C0.0366769 30.7166 0.0871515 31.4389 0.288227 32.1258C0.489303 32.8128 0.836244 33.4482 1.30536 33.9888C1.8106 34.5699 2.43534 35.0351 3.1369 35.3525C3.83845 35.6699 4.60027 35.8321 5.37028 35.828H23.631C24.401 35.8321 25.1628 35.6699 25.8644 35.3525C26.5659 35.0351 27.1907 34.5699 27.6959 33.9888C28.165 33.4482 28.512 32.8128 28.713 32.1258C28.9141 31.4389 28.9646 30.7166 28.861 30.0084Z" fill="#B3B3B3"/>
</g>
</svg>
